<svg width="220" height="64" viewBox="0 0 220 64" fill="none" xmlns="http://www.w3.org/2000/svg">
<path fill-rule="evenodd" clip-rule="evenodd" d="M142.344 34.3207C145.668 34.3207 148.575 34.9419 151.062 36.1848C153.574 37.4278 155.528 39.1658 156.924 41.3981C158.319 43.605 159.017 46.1927 159.017 49.1605C159.017 52.1282 158.319 54.7282 156.924 56.9604C155.528 59.1673 153.574 60.8923 151.062 62.1353C148.575 63.3783 145.668 64.0003 142.344 64.0003C139.02 64.0003 136.101 63.3783 133.589 62.1353C131.102 60.8923 129.161 59.1673 127.765 56.9604C126.369 54.7282 125.672 52.1283 125.672 49.1605C125.672 46.1926 126.369 43.605 127.765 41.3981C129.161 39.1658 131.102 37.4278 133.589 36.1848C136.101 34.9419 139.02 34.3207 142.344 34.3207ZM142.344 40.0664C140.288 40.0665 138.499 40.4341 136.977 41.1698C135.454 41.9054 134.274 42.9582 133.436 44.328C132.624 45.6978 132.218 47.3088 132.218 49.1605C132.218 51.0122 132.624 52.6232 133.436 53.9929C134.274 55.3627 135.454 56.4156 136.977 57.1512C138.499 57.8868 140.289 58.2545 142.344 58.2545C144.425 58.2545 146.215 57.8868 147.712 57.1512C149.234 56.4156 150.401 55.3625 151.213 53.9929C152.051 52.6232 152.47 51.0122 152.47 49.1605C152.47 47.3087 152.051 45.6979 151.213 44.328C150.401 42.9583 149.234 41.9054 147.712 41.1698C146.215 40.4341 144.425 40.0664 142.344 40.0664Z" fill="#00D1FF"/>
<path fill-rule="evenodd" clip-rule="evenodd" d="M203.327 34.3207C206.651 34.3207 209.557 34.9419 212.044 36.1848C214.557 37.4278 216.511 39.1658 217.907 41.3981C219.302 43.605 220 46.1927 220 49.1605C220 52.1282 219.302 54.7282 217.907 56.9604C216.511 59.1673 214.557 60.8923 212.044 62.1353C209.557 63.3783 206.651 64.0003 203.327 64.0003C200.003 64.0002 197.084 63.3783 194.572 62.1353C192.085 60.8923 190.144 59.1673 188.748 56.9604C187.352 54.7282 186.655 52.1283 186.654 49.1605C186.654 46.1926 187.352 43.605 188.748 41.3981C190.144 39.1658 192.085 37.4278 194.572 36.1848C197.084 34.9419 200.003 34.3207 203.327 34.3207ZM203.327 40.0664C201.271 40.0665 199.482 40.4341 197.96 41.1698C196.437 41.9054 195.257 42.9583 194.42 44.328C193.608 45.6979 193.201 47.3087 193.201 49.1605C193.201 51.0122 193.608 52.6232 194.42 53.9929C195.257 55.3626 196.437 56.4156 197.96 57.1512C199.482 57.8868 201.271 58.2545 203.327 58.2545C205.408 58.2545 207.197 57.8868 208.695 57.1512C210.217 56.4156 211.384 55.3625 212.196 53.9929C213.034 52.6232 213.452 51.0122 213.452 49.1605C213.452 47.3087 213.034 45.6979 212.196 44.328C211.384 42.9583 210.217 41.9054 208.695 41.1698C207.197 40.4341 205.408 40.0664 203.327 40.0664Z" fill="#00D1FF"/>
<path d="M34.145 63.4295H27.7116V40.5989H13.7955C13.8892 41.6926 13.9615 42.7577 14.008 43.7948C14.1095 45.4943 14.1605 47.093 14.1605 48.5897C14.1605 52.1914 13.8436 55.1212 13.2093 57.3787C12.5749 59.6364 11.5848 61.2982 10.2398 62.3637C8.89482 63.4291 7.13104 63.962 4.94859 63.962C4.08579 63.962 3.22289 63.8607 2.36009 63.6578C1.4973 63.4802 0.710535 63.2137 0 62.8586V57.4554C1.0912 57.8866 2.10641 58.102 3.04535 58.102C4.82167 58.102 6.10348 57.2904 6.89017 55.6671C7.67687 54.0182 8.06982 51.3416 8.06982 47.638C8.06982 45.9638 8.00661 44.0614 7.87973 41.9306C7.75285 39.7999 7.54948 37.4534 7.27034 34.8915H34.145V63.4295Z" fill="#00D1FF"/>
<path d="M65.8093 40.2564H47.3175L48.3287 46.6872H64.8197V51.6338H48.3287L47.3175 58.0637H65.9994V63.4295H40.3052L42.5127 49.1605L40.3052 34.8915H65.8093V40.2564Z" fill="#00D1FF"/>
<path d="M92.1232 40.6365H77.7718V63.4295H71.301V34.8915H92.1232V40.6365Z" fill="#00D1FF"/>
<path d="M102.538 54.6084L118.373 34.8915H125.263L115.399 46.9554L125.682 63.4295H118.297L111.282 51.9906L101.929 63.4295H96.1046V34.8915H102.538V54.6084Z" fill="#00D1FF"/>
<path d="M185.493 40.6365H171.143V63.4295H164.671V34.8915H185.493V40.6365Z" fill="#00D1FF"/>
<path fill-rule="evenodd" clip-rule="evenodd" d="M118.031 0.571098C120.289 0.571107 122.243 0.963895 123.893 1.75027C125.542 2.53664 126.798 3.6405 127.661 5.06104C128.549 6.48159 128.993 8.13047 128.993 10.0076C128.993 11.8847 128.549 13.5337 127.661 14.9542C126.798 16.3493 125.542 17.4525 123.893 18.2642C122.243 19.0506 120.289 19.4442 118.031 19.4442H108.933V29.109H102.461V0.571098H118.031ZM108.933 14.1168H117.688C119.185 14.1168 120.353 13.7491 121.19 13.0134C122.053 12.2778 122.484 11.2759 122.484 10.0076C122.484 8.71405 122.053 7.7121 121.19 7.00183C120.353 6.2662 119.185 5.89772 117.688 5.89771H108.933V14.1168Z" fill="#00D1FF"/>
<path fill-rule="evenodd" clip-rule="evenodd" d="M161.961 29.109H155.071L152.359 23.0966H136.542L133.83 29.109H126.94L140.302 0.571098H148.6L161.961 29.109ZM138.91 17.8459H149.991L144.45 5.55921L138.91 17.8459Z" fill="#00D1FF"/>
<path d="M172.666 20.288L188.501 0.571098H195.391L185.527 12.6342L195.81 29.109H188.425L181.409 17.6702L172.056 29.109H166.232V0.571098H172.666V20.288Z" fill="#00D1FF"/>
<path fill-rule="evenodd" clip-rule="evenodd" d="M80.9525 6.10352e-05C84.2769 6.10352e-05 87.183 0.621228 89.67 1.86422C92.1823 3.10716 94.1358 4.84528 95.5315 7.07746C96.9273 9.2844 97.6256 11.8719 97.6256 14.8399C97.6256 17.8078 96.9272 20.4083 95.5315 22.6406C94.1358 24.8472 92.182 26.5718 89.67 27.8147C87.183 29.0577 84.2769 29.6796 80.9525 29.6796C77.6281 29.6796 74.7097 29.0577 72.1974 27.8147C69.7106 26.5718 67.7692 24.8473 66.3735 22.6406C64.9777 20.4083 64.2793 17.8078 64.2793 14.8399C64.2793 11.8719 64.9777 9.2844 66.3735 7.07746C67.7692 4.84519 69.7104 3.10719 72.1974 1.86422C74.7097 0.621276 77.6281 7.84108e-05 80.9525 6.10352e-05ZM80.9525 5.74581C78.897 5.74583 77.108 6.11353 75.5854 6.84913C74.0627 7.58478 72.8823 8.6376 72.0448 10.0074C71.2328 11.3772 70.8269 12.9881 70.8269 14.8399C70.8269 16.6916 71.2328 18.3025 72.0448 19.6723C72.8823 21.0421 74.0627 22.0949 75.5854 22.8306C77.108 23.5662 78.897 23.9339 80.9525 23.9339C83.0333 23.9339 84.8224 23.5661 86.3196 22.8306C87.8422 22.095 89.0097 21.042 89.8218 19.6723C90.6592 18.3025 91.0781 16.6916 91.0781 14.8399C91.0781 12.9881 90.6592 11.3772 89.8218 10.0074C89.0097 8.63763 87.8422 7.58477 86.3196 6.84913C84.8224 6.11359 83.0333 5.74581 80.9525 5.74581Z" fill="#FF2CFF"/>
<path fill-rule="evenodd" clip-rule="evenodd" d="M18.0432 0.570884C20.3016 0.570884 22.256 0.963769 23.9055 1.75005C25.555 2.53643 26.8116 3.64027 27.6744 5.06082C28.5626 6.48134 29.0066 8.13033 29.0066 10.0074C29.0066 11.8845 28.5626 13.5335 27.6744 14.954C26.8116 16.3492 25.555 17.4523 23.9055 18.264C22.256 19.0503 20.3017 19.444 18.0432 19.444H8.94548V29.1088H2.47461V0.570884H18.0432ZM8.94548 14.1165H17.7014C19.1984 14.1165 20.3654 13.7487 21.2028 13.0132C22.0656 12.2776 22.4974 11.2757 22.4974 10.0074C22.4974 8.7137 22.0656 7.7119 21.2028 7.00162C20.3654 6.26604 19.1984 5.89756 17.7014 5.8975H8.94548V14.1165Z" fill="#FF2CFF"/>
<path fill-rule="evenodd" clip-rule="evenodd" d="M50.2242 0.570884C52.3051 0.570902 54.1322 0.951534 55.7055 1.71253C57.2788 2.44814 58.5096 3.4752 59.3978 4.79417C60.286 6.11326 60.73 7.6609 60.73 9.4366C60.73 11.1869 60.286 12.7216 59.3978 14.0407C58.5096 15.3597 57.2789 16.3997 55.7055 17.1607C54.7808 17.593 53.7682 17.8973 52.6682 18.0756L61.5678 29.1088H53.9924L45.3994 18.264H40.4413V29.1088H33.9696V0.570884H50.2242ZM40.4413 13.2416H49.4631C50.9094 13.2415 52.0512 12.9118 52.8886 12.2524C53.7514 11.5675 54.1832 10.6288 54.1833 9.4366C54.1833 8.24439 53.7514 7.31867 52.8886 6.65913C52.0512 5.99963 50.9094 5.66922 49.4631 5.66917H40.4413V13.2416Z" fill="#FF2CFF"/>
</svg>
